<svg xmlns="http://www.w3.org/2000/svg" xmlns:xlink="http://www.w3.org/1999/xlink" version="1.1" x="0px" y="0px" viewBox="-252 375.9 90 112.5" style="enable-background:new -252 375.9 90 90;" xml:space="preserve"><rect width="48" height="48" rx="12" fill="#7ADB78"/><path d="M-200.2,418l19.3-2.2c0,0,8.2-17.8-5-17.8s-14.3,7.6-14.3,7.6s-0.1,0.8,1.3,0.7c1.4-0.2,7.6-1.5,7.8-0.5s0.9,7.6-0.6,7.8  c-1.5,0.3-7.9,0.3-8.6,0.7S-200.2,418-200.2,418z"/><path d="M-191.9,418.4c3.7-1.7,14.5-0.3,12.3,2.6c-2.2,2.9-13.4,15.5-13.4,15.5l-3.1-8.5c0,0,3.4-1.6,5.7-2.7l-0.9-0.5l-7.9,3.5  c0,0-2.9,1.4-5.9,0.4s-8.9-3.7-9.9-4.4c-1-0.7-1.4-2.7-0.8-3.8c0.6-1.1,1.8-2.2,3.9-1.3s9.3,3.7,9.3,3.7S-196.2,420.4-191.9,418.4z"/><rect x="-237.6" y="427.2" transform="matrix(0.7595 -0.6505 0.6505 0.7595 -332.4311 -43.6822)" width="24.6" height="1.2"/><path d="M-212.1,425L-212.1,425c-0.4,0.4-1.1,0.3-1.4-0.1l-7.1-8.3c-0.4-0.4-0.3-1.1,0.1-1.4l0,0c0.4-0.4,1.1-0.3,1.4,0.1l7.1,8.3  C-211.6,424-211.7,424.6-212.1,425z"/><path d="M-242.4,444.9c0-4.8,3.9-8.7,8.7-8.7c0.3,0,0.5,0,0.8,0c-0.7-1.1-1.5-2.4-2.5-3.9c-11.4,4.1-12.4,13-12.4,13l0.4,3.8h6.1  C-242,447.9-242.4,446.4-242.4,444.9z"/><path d="M-198.7,429.6l-7.9,5l-8-5.9c0,0-2.5-3.4-6.7,0c-2.5,2-6.7,5.5-9.7,8.1c2.3,0.8,4.2,2.7,5.1,5l7.6-5.9l8.3,8.1  c0,0-1.5-6.6,2.9-7.5c4.5-0.9,10.6,0,10.6,0L-198.7,429.6z"/><path d="M-176.5,432l1.5-7.1l-4.3-1.6l-13.4,15.1c0,0-10.4-0.6-11.9-0.6s-2.7,0.2-3.6,1.8c-0.9,1.5,0,4.3,0,4.3h-16.9  c0,0.3,0.1,0.6,0.1,1c0,1.5-0.4,3-1.1,4.2h39.3c-0.7-1.2-1.1-2.7-1.1-4.2c0-4.8,3.9-8.7,8.7-8.7c4.8,0,8.7,3.9,8.7,8.7  c0,1.5-0.4,3-1.1,4.2h5.4c0,0,0,0,0.3-2.8C-165.3,433.2-176.5,432-176.5,432z"/><path d="M-234,437.6c-4,0-7.3,3.3-7.3,7.3s3.3,7.3,7.3,7.3s7.3-3.3,7.3-7.3S-230,437.6-234,437.6z M-234,447.7  c-1.6,0-2.8-1.3-2.8-2.8c0-1.6,1.3-2.8,2.8-2.8c1.6,0,2.8,1.3,2.8,2.8C-231.2,446.5-232.4,447.7-234,447.7z"/><path d="M-179.3,437.6c-4,0-7.3,3.3-7.3,7.3s3.3,7.3,7.3,7.3c4,0,7.3-3.3,7.3-7.3S-175.3,437.6-179.3,437.6z M-179.3,447.7  c-1.6,0-2.8-1.3-2.8-2.8c0-1.6,1.3-2.8,2.8-2.8c1.6,0,2.8,1.3,2.8,2.8C-176.5,446.5-177.7,447.7-179.3,447.7z"/></svg>
